name rise49.25peak52.1432fall72.8391.mot
datacolumns 19
datarows 27
range 21.60491800000000 21.64824800000000
endheader
time	ground_force1_vx	ground_force1_vy	ground_force1_vz	ground_force1_px	ground_force1_py	ground_force1_pz	ground_force2_vx	ground_force2_vy	ground_force2_vz	ground_force2_px	ground_force2_py	ground_force2_pz	ground_torque1_x	ground_torque1_y	ground_torque1_z	ground_torque2_x	ground_torque2_y	ground_torque2_z	
21.60491800000000	66.25071300000000	804.65812600000004	58.25514700000000	0.34041800000000	0.00000000000000	0.11482800000000	0.00000000000000	0.00000000000000	0.00000000000000	0.00000000000000	0.00000000000000	0.00000000000000	0.00000000000000	23.77248800000000	0.00000000000000	0.00000000000000	0.00000000000000	0.00000000000000	
21.60658700000000	65.66757500000000	807.06086600000003	58.36696200000000	0.33972100000000	0.00000000000000	0.11480800000000	0.00000000000000	0.00000000000000	0.00000000000000	0.00000000000000	0.00000000000000	0.00000000000000	0.00000000000000	23.85605900000000	0.00000000000000	0.00000000000000	0.00000000000000	0.00000000000000	
21.60824900000000	65.07609900000000	809.25856999999996	58.47322800000000	0.33902800000000	0.00000000000000	0.11479000000000	0.00000000000000	0.00000000000000	0.00000000000000	0.00000000000000	0.00000000000000	0.00000000000000	0.00000000000000	23.93786900000000	0.00000000000000	0.00000000000000	0.00000000000000	0.00000000000000	
21.60991500000000	64.47674100000000	811.24984099999995	58.57358600000000	0.33833900000000	0.00000000000000	0.11477400000000	0.00000000000000	0.00000000000000	0.00000000000000	0.00000000000000	0.00000000000000	0.00000000000000	0.00000000000000	24.01761000000000	0.00000000000000	0.00000000000000	0.00000000000000	0.00000000000000	
21.61157900000000	63.86991800000000	813.03362800000002	58.66763600000000	0.33765300000000	0.00000000000000	0.11476100000000	0.00000000000000	0.00000000000000	0.00000000000000	0.00000000000000	0.00000000000000	0.00000000000000	0.00000000000000	24.09495300000000	0.00000000000000	0.00000000000000	0.00000000000000	0.00000000000000	
21.61325300000000	63.25601900000000	814.60923900000000	58.75494800000000	0.33696900000000	0.00000000000000	0.11475000000000	0.00000000000000	0.00000000000000	0.00000000000000	0.00000000000000	0.00000000000000	0.00000000000000	0.00000000000000	24.16954800000000	0.00000000000000	0.00000000000000	0.00000000000000	0.00000000000000	
21.61491700000000	62.63539900000000	815.97635000000002	58.83506400000000	0.33628500000000	0.00000000000000	0.11474100000000	0.00000000000000	0.00000000000000	0.00000000000000	0.00000000000000	0.00000000000000	0.00000000000000	0.00000000000000	24.24102800000000	0.00000000000000	0.00000000000000	0.00000000000000	0.00000000000000	
21.61658200000000	62.00838800000000	817.13501299999996	58.90750100000000	0.33560000000000	0.00000000000000	0.11473500000000	0.00000000000000	0.00000000000000	0.00000000000000	0.00000000000000	0.00000000000000	0.00000000000000	0.00000000000000	24.30901700000000	0.00000000000000	0.00000000000000	0.00000000000000	0.00000000000000	
21.61824900000000	61.37529100000000	818.08566599999995	58.97176200000000	0.33491300000000	0.00000000000000	0.11473000000000	0.00000000000000	0.00000000000000	0.00000000000000	0.00000000000000	0.00000000000000	0.00000000000000	0.00000000000000	24.37312600000000	0.00000000000000	0.00000000000000	0.00000000000000	0.00000000000000	
21.61991200000000	60.73639200000000	818.82913799999994	59.02733800000000	0.33422400000000	0.00000000000000	0.11472800000000	0.00000000000000	0.00000000000000	0.00000000000000	0.00000000000000	0.00000000000000	0.00000000000000	0.00000000000000	24.43296300000000	0.00000000000000	0.00000000000000	0.00000000000000	0.00000000000000	
21.62157900000000	60.09195600000000	819.36665100000005	59.07371400000000	0.33353000000000	0.00000000000000	0.11472900000000	0.00000000000000	0.00000000000000	0.00000000000000	0.00000000000000	0.00000000000000	0.00000000000000	0.00000000000000	24.48812900000000	0.00000000000000	0.00000000000000	0.00000000000000	0.00000000000000	
21.62325200000000	59.44223200000000	819.69982700000003	59.11037300000000	0.33283100000000	0.00000000000000	0.11473100000000	0.00000000000000	0.00000000000000	0.00000000000000	0.00000000000000	0.00000000000000	0.00000000000000	0.00000000000000	24.53823100000000	0.00000000000000	0.00000000000000	0.00000000000000	0.00000000000000	
21.62491300000000	58.78745800000000	819.83068600000001	59.13680500000000	0.33212400000000	0.00000000000000	0.11473600000000	0.00000000000000	0.00000000000000	0.00000000000000	0.00000000000000	0.00000000000000	0.00000000000000	0.00000000000000	24.58287500000000	0.00000000000000	0.00000000000000	0.00000000000000	0.00000000000000	
21.62658200000000	58.12786200000000	819.76164700000004	59.15251000000000	0.33140900000000	0.00000000000000	0.11474300000000	0.00000000000000	0.00000000000000	0.00000000000000	0.00000000000000	0.00000000000000	0.00000000000000	0.00000000000000	24.62167800000000	0.00000000000000	0.00000000000000	0.00000000000000	0.00000000000000	
21.62824600000000	57.46366500000000	819.49552600000004	59.15700100000000	0.33068500000000	0.00000000000000	0.11475200000000	0.00000000000000	0.00000000000000	0.00000000000000	0.00000000000000	0.00000000000000	0.00000000000000	0.00000000000000	24.65426400000000	0.00000000000000	0.00000000000000	0.00000000000000	0.00000000000000	
21.62991800000000	56.79508600000000	819.03553299999999	59.14981300000000	0.32995000000000	0.00000000000000	0.11476300000000	0.00000000000000	0.00000000000000	0.00000000000000	0.00000000000000	0.00000000000000	0.00000000000000	0.00000000000000	24.68027400000000	0.00000000000000	0.00000000000000	0.00000000000000	0.00000000000000	
21.63158700000000	56.12234200000000	818.38526600000000	59.13050700000000	0.32920200000000	0.00000000000000	0.11477700000000	0.00000000000000	0.00000000000000	0.00000000000000	0.00000000000000	0.00000000000000	0.00000000000000	0.00000000000000	24.69936200000000	0.00000000000000	0.00000000000000	0.00000000000000	0.00000000000000	
21.63324600000000	55.44565100000000	817.54870400000004	59.09867200000000	0.32844100000000	0.00000000000000	0.11479300000000	0.00000000000000	0.00000000000000	0.00000000000000	0.00000000000000	0.00000000000000	0.00000000000000	0.00000000000000	24.71120400000000	0.00000000000000	0.00000000000000	0.00000000000000	0.00000000000000	
21.63491800000000	54.76523600000000	816.53020100000003	59.05393000000000	0.32766400000000	0.00000000000000	0.11481100000000	0.00000000000000	0.00000000000000	0.00000000000000	0.00000000000000	0.00000000000000	0.00000000000000	0.00000000000000	24.71549500000000	0.00000000000000	0.00000000000000	0.00000000000000	0.00000000000000	
21.63658500000000	54.08132700000000	815.33447600000000	58.99594100000000	0.32687200000000	0.00000000000000	0.11483000000000	0.00000000000000	0.00000000000000	0.00000000000000	0.00000000000000	0.00000000000000	0.00000000000000	0.00000000000000	24.71195900000000	0.00000000000000	0.00000000000000	0.00000000000000	0.00000000000000	
21.63824600000000	53.39416200000000	813.96659799999998	58.92440800000000	0.32606100000000	0.00000000000000	0.11485200000000	0.00000000000000	0.00000000000000	0.00000000000000	0.00000000000000	0.00000000000000	0.00000000000000	0.00000000000000	24.70034300000000	0.00000000000000	0.00000000000000	0.00000000000000	0.00000000000000	
21.63992000000000	52.70399100000000	812.43197999999995	58.83907600000000	0.32523200000000	0.00000000000000	0.11487700000000	0.00000000000000	0.00000000000000	0.00000000000000	0.00000000000000	0.00000000000000	0.00000000000000	0.00000000000000	24.68042400000000	0.00000000000000	0.00000000000000	0.00000000000000	0.00000000000000	
21.64158300000000	52.01107300000000	810.73635899999999	58.73973800000000	0.32438300000000	0.00000000000000	0.11490300000000	0.00000000000000	0.00000000000000	0.00000000000000	0.00000000000000	0.00000000000000	0.00000000000000	0.00000000000000	24.65201200000000	0.00000000000000	0.00000000000000	0.00000000000000	0.00000000000000	
21.64325900000000	51.31568300000000	808.88578600000005	58.62623500000000	0.32351200000000	0.00000000000000	0.11493100000000	0.00000000000000	0.00000000000000	0.00000000000000	0.00000000000000	0.00000000000000	0.00000000000000	0.00000000000000	24.61494800000000	0.00000000000000	0.00000000000000	0.00000000000000	0.00000000000000	
21.64491500000000	50.61811200000000	806.88660600000003	58.49846200000000	0.32261900000000	0.00000000000000	0.11496100000000	0.00000000000000	0.00000000000000	0.00000000000000	0.00000000000000	0.00000000000000	0.00000000000000	0.00000000000000	24.56910800000000	0.00000000000000	0.00000000000000	0.00000000000000	0.00000000000000	
21.64658400000000	49.91866500000000	804.74544400000002	58.35636600000000	0.32170300000000	0.00000000000000	0.11499400000000	0.00000000000000	0.00000000000000	0.00000000000000	0.00000000000000	0.00000000000000	0.00000000000000	0.00000000000000	24.51440500000000	0.00000000000000	0.00000000000000	0.00000000000000	0.00000000000000	
21.64824800000000	49.21766600000000	802.46918400000004	58.19994600000000	0.32076200000000	0.00000000000000	0.11502800000000	0.00000000000000	0.00000000000000	0.00000000000000	0.00000000000000	0.00000000000000	0.00000000000000	0.00000000000000	24.45078700000000	0.00000000000000	0.00000000000000	0.00000000000000	0.00000000000000	
